<svg xmlns="http://www.w3.org/2000/svg" viewBox="0 0 213.135 232.253" preserveAspectRatio="xMidYMid meet" aria-hidden="true" focusable="false">
  <g transform="translate(0.135 232) scale(0.1 -0.1)" fill="currentColor" stroke="none">
    <path d="M5 2299c4 -12 38 -87 76 -166 38 -80 66 -150 62 -155 -3 -6 -2 -8 4 -5 5 3 18 -13 28 -36 31 -70 75 -166 130 -282 29 -60 65 -137 79 -170 30 -68 63 -130 69 -130 8 0 134 83 150 99 14 15 14 19 1 44 -45 85 -113 246 -107 255 3 6 1 7 -5 3 -11 -7 -16 7 -15 41 1 7 -3 11 -7 8 -4 -3 -15 13 -23 34 -20 48 -75 170 -89 196 -6 11 -24 50 -39 87l-28 68 609 0 608 0 32 -56c17 -31 32 -65 33 -75 1 -10 3 -16 6 -14 8 9 100 -176 94 -190 -3 -8 -10 -12 -16 -8 -6 3 -7 1 -3 -5 4 -7 -5 -35 -20 -62 -15 -28 -25 -52 -23 -53 5 -4 159 -48 177 -50 7 -1 38 45 68 102l55 104 -57 111c-32 61 -65 125 -74 142 -29 50 -54 99 -55 104 -1 3 -11 22 -24 43l-23 37 -840 0 -839 0 6 -21z"/>
    <path d="M1900 2315c0 -2 26 -47 59 -99 55 -90 59 -95 75 -78 9 10 16 23 16 28 0 5 18 40 40 78 22 37 40 70 40 72 0 2 -52 4 -115 4 -63 0 -115 -2 -115 -5z"/>
    <path d="M1385 1644c-299 -44 -555 -154 -803 -344 -104 -80 -237 -218 -303 -315 -30 -44 -56 -82 -59 -85 -9 -9 -42 -84 -61 -137 -16 -47 -16 -54 -3 -68 9 -8 20 -15 27 -15 6 0 40 33 76 72 176 193 318 320 489 435 111 74 315 167 442 201 117 32 248 54 255 43 2 -4 -5 -24 -15 -45 -9 -21 -20 -35 -22 -30 -3 5 -3 3 -2 -4 2 -7 -5 -32 -15 -55 -41 -89 -129 -284 -146 -324 -10 -23 -21 -40 -24 -38 -3 1 -7 -7 -7 -18 -1 -12 -41 -111 -89 -220 -87 -195 -89 -197 -101 -168 -7 17 -20 45 -28 63 -101 217 -194 433 -190 440 3 4 -8 0 -24 -9 -16 -10 -55 -33 -86 -52 -32 -19 -60 -39 -62 -46 -3 -7 9 -43 27 -81 17 -38 69 -154 115 -259 47 -104 91 -203 99 -220 7 -16 23 -51 34 -77 30 -69 55 -126 80 -180 11 -26 21 -51 21 -55 0 -5 9 -19 19 -32l18 -24 22 49c13 27 31 67 42 90 10 23 19 44 19 47 0 3 16 39 35 80 19 41 35 80 35 86 0 7 5 9 12 5 7 -4 8 -3 4 4 -4 6 4 33 17 59 13 26 30 65 36 86 8 22 17 34 23 31 6 -4 8 -2 5 3 -4 6 34 101 83 212 50 111 90 207 90 212 0 6 5 7 12 3 7 -4 8 -3 4 4 -4 7 -1 24 7 39 22 41 103 225 111 251 4 12 12 19 18 16 6 -4 8 -2 5 3 -5 8 34 113 49 132 7 8 105 -32 167 -68l67 -39 45 56c25 31 45 60 45 64 0 20 -127 116 -202 153 -49 24 -88 42 -88 40 0 -2 -21 3 -47 10 -49 15 -224 27 -278 19z"/>
  </g>
</svg>
