<svg xmlns="http://www.w3.org/2000/svg" viewBox="0 0 288 312.52" preserveAspectRatio="xMidYMid meet" aria-hidden="true" focusable="false">
  <g transform="translate(0 313) scale(0.1 -0.1)" fill="currentColor" stroke="none">
    <path d="M0 3123c0 -3 50 -113 111 -242 61 -130 124 -263 139 -296 15 -33 101 -215 190 -405 89 -190 171 -364 181 -387 10 -24 21 -43 24 -43 16 0 210 143 207 153 -3 10 -110 247 -227 502 -20 44 -43 94 -50 110 -8 17 -43 95 -79 174 -37 79 -66 145 -66 147 0 2 357 4 794 4l794 0 111 -206c61 -113 111 -208 111 -212 0 -3 -20 -45 -45 -93 -25 -48 -45 -90 -45 -93 0 -2 25 -10 56 -16 31 -7 81 -21 112 -31 30 -10 61 -19 68 -19 14 0 144 248 144 273 0 8 -41 90 -91 183 -50 93 -127 239 -171 324 -44 85 -85 161 -91 168 -7 9 -238 12 -1093 12 -596 0 -1084 -3 -1084 -7z"/>
    <path d="M2460 3121c0 -14 213 -371 221 -371 3 0 37 57 74 128 37 70 81 150 97 179 15 29 28 57 28 62 0 8 -69 11 -210 11 -125 0 -210 -4 -210 -9z"/>
    <path d="M1885 2124c-254 -30 -455 -90 -680 -204 -456 -230 -817 -593 -941 -947 -20 -56 -11 -83 28 -83 12 0 99 80 231 213 117 118 255 247 307 288 249 197 491 325 761 404 101 29 150 38 322 60l37 5 -14 -32c-21 -47 -102 -229 -180 -403 -90 -199 -132 -292 -206 -460 -129 -296 -144 -326 -151 -313 -12 22 -114 246 -178 393 -86 194 -125 275 -133 275 -12 0 -208 -125 -208 -132 0 -15 517 -1169 529 -1181 7 -7 17 5 32 39 11 27 38 87 59 134 43 97 231 520 345 780 143 323 385 861 391 869 7 8 167 -63 232 -103l69 -43 57 74c31 41 56 78 56 82 0 5 -27 34 -61 65 -173 161 -455 248 -704 220z"/>
  </g>
</svg>
