<svg xmlns="http://www.w3.org/2000/svg" viewBox="0 0 400 400" fill="none">
  <rect width="400" height="400" fill="#1a2a24"/>
  <!-- Shield / protection motif -->
  <path d="M200 80C200 80 120 120 120 200C120 280 200 330 200 330C200 330 280 280 280 200C280 120 200 80 200 80Z" stroke="#4A141C" stroke-width="2" stroke-linejoin="round"/>
  <!-- Inner inflammatory pathway -->
  <circle cx="200" cy="200" r="30" stroke="#4A141C" stroke-width="1.5" opacity="0.6"/>
  <circle cx="200" cy="200" r="12" fill="#4A141C" opacity="0.2"/>
  <!-- Radial markers -->
  <path d="M200 170V150" stroke="#4A141C" stroke-width="1.5" stroke-linecap="round" opacity="0.5"/>
  <path d="M200 250V230" stroke="#4A141C" stroke-width="1.5" stroke-linecap="round" opacity="0.5"/>
  <path d="M170 200H150" stroke="#4A141C" stroke-width="1.5" stroke-linecap="round" opacity="0.5"/>
  <path d="M250 200H230" stroke="#4A141C" stroke-width="1.5" stroke-linecap="round" opacity="0.5"/>
  <!-- Wave markers -->
  <path d="M160 160C170 150 180 155 190 150" stroke="#4A141C" stroke-width="1" opacity="0.3" stroke-linecap="round"/>
  <path d="M210 250C220 245 230 250 240 240" stroke="#4A141C" stroke-width="1" opacity="0.3" stroke-linecap="round"/>
</svg>
